<?xml version="1.0" standalone="no"?>
<!DOCTYPE svg PUBLIC "-//W3C//DTD SVG 1.1//EN" "http://www.w3.org/Graphics/SVG/1.1/DTD/svg11.dtd" >
<svg xmlns="http://www.w3.org/2000/svg" xmlns:xlink="http://www.w3.org/1999/xlink" version="1.1">
<metadata></metadata>
<defs>
<font id="thailandesaregular" horiz-adv-x="1024" >
<font-face units-per-em="2048" ascent="1638" descent="-410" />
<missing-glyph horiz-adv-x="510" />
<glyph horiz-adv-x="0" />
<glyph unicode="&#xd;" horiz-adv-x="510" />
<glyph unicode=" "  horiz-adv-x="510" />
<glyph unicode="&#x09;" horiz-adv-x="510" />
<glyph unicode="&#xa0;" horiz-adv-x="510" />
<glyph unicode="!" horiz-adv-x="530" d="M45 1540h442q-77 0 -77 -70v-38l-69 -984q-5 -70 74 -70h-300q80 0 75 70l-71 1022q-1 70 -74 70zM130 262h162q63 0 63 -63v-153q0 -46 45 -46h-162q-63 0 -63 63v153q0 46 -45 46z" />
<glyph unicode="&#x22;" horiz-adv-x="703" d="M45 1436h162q63 0 63 -63v-447q0 -46 46 -46h-163q-62 0 -62 63v447q0 46 -46 46zM339 1436h162q63 0 63 -63v-447q0 -46 46 -46h-163q-62 0 -62 63v447q0 46 -46 46z" />
<glyph unicode="#" horiz-adv-x="1893" d="M91 402l83 272q-2 -8 -2 -16q0 -42 30 -41h403l81 262l-425 -1q-44 1 -54 -32l83 272q-2 -8 -2 -16q0 -42 31 -41h425l110 353q1 3 1 7q0 37 -48 37h285q-35 0 -47 -42l-111 -354h261l108 352q1 3 1 7q0 37 -48 37h285q-35 0 -47 -42l-111 -354h378q43 -1 53 32l-83 -272 q3 8 3 16q0 42 -31 41l-376 1l-82 -263h399q44 -1 54 32l-83 -272q2 8 2 16q0 42 -30 41h-400l-124 -394q-1 -3 -1 -7q0 -37 48 -37h-285q35 0 47 42l125 396h-258l-125 -394q-1 -3 -1 -7q0 -37 48 -37h-285q35 0 47 42l124 396h-402q-44 1 -54 -32zM795 617h258l83 262 h-258z" />
<glyph unicode="$" horiz-adv-x="1151" d="M64 516h246q116 0 116 -102v-56q0 -65 65 -65h38v369q-31 11 -101 30q-294 56 -294 264v344q0 241 246 241h147l1 89q0 70 -75 70h249q-76 0 -76 -70v-89h143q246 0 246 -241v-195q0 -75 74 -75h-250q-116 0 -116 103v55q0 65 -65 65h-32v-373q51 -16 95 -23 q294 -54 294 -267v-343q0 -247 -246 -247h-142v-90q-1 -70 74 -70h-247q74 0 74 70v90h-137q-257 0 -257 247v194q0 75 -70 75zM426 1077q0 -96 102 -155v331h-37q-65 0 -65 -65v-111zM627 293h31q65 0 65 65v111q0 98 -96 155v-331zM627 624z" />
<glyph unicode="%" horiz-adv-x="1430" d="M118 949v511q0 117 119 117h237q119 0 119 -117v-511q0 -119 -119 -119h-237q-119 0 -119 119zM260 1006q0 -32 31 -32h129q31 0 31 32v400q0 32 -31 32h-129q-31 0 -31 -32v-400zM285 -193q35 0 47 42l522 1684q1 3 1 7q0 37 -48 37h285q-35 0 -47 -42l-522 -1684 q-1 -3 -1 -7q0 -37 48 -37h-285zM794 -74v511q0 117 119 117h237q119 0 119 -117v-511q0 -119 -119 -119h-237q-119 0 -119 119zM936 -18q0 -31 31 -31h129q31 0 31 31v401q0 31 -31 31h-129q-31 0 -31 -31v-401z" />
<glyph unicode="&#x26;" horiz-adv-x="1367" d="M137 248v1050q0 246 246 246h414q247 0 247 -246v-196q0 -74 74 -74h-251q-116 0 -116 102v56q0 65 -65 65h-191q-65 0 -65 -65l-1 -276h705q98 0 98 -116v-251q0 74 -70 74h-118v-369q0 -247 -270 -247h-391q-246 0 -246 247zM430 359q0 -65 65 -65h191q65 0 65 65v186 q0 74 -70 74l-251 1v-261z" />
<glyph unicode="'" horiz-adv-x="317" d="M32 1436h162q63 0 63 -63v-447q0 -46 46 -46h-163q-62 0 -62 63v447q0 46 -46 46z" />
<glyph unicode="(" horiz-adv-x="653" d="M186 553q0 528 318 987h117q-256 -395 -256 -981q0 -401 92 -647q66 -176 164 -361h-117q-318 520 -318 1002z" />
<glyph unicode=")" horiz-adv-x="653" d="M55 -449q96 183 162 361q94 252 94 647q0 586 -256 981h117q317 -458 317 -987q0 -484 -317 -1002h-117z" />
<glyph unicode="*" d="M113 1185l54 176q-9 -30 19 -38l264 -82l-1 270q0 29 -31 29h184q-31 0 -31 -29v-269l265 81q27 8 18 38l54 -176q-9 30 -37 21l-264 -81l176 -223q18 -23 42 -4l-145 -113q25 19 7 42l-177 226l-176 -226q-8 -9 -8 -18q0 -13 14 -24l-145 113q25 -19 43 4l177 223 l-265 81q-28 9 -37 -21z" />
<glyph unicode="+" horiz-adv-x="1706" d="M254 475v276q0 -47 44 -47h464l-1 465q0 44 -46 44h276q-47 0 -47 -44v-464h464q44 0 44 46v-277q0 48 -44 48h-464v-463q1 -44 47 -44h-277q48 0 48 44v462l-464 1q-44 0 -44 -47z" />
<glyph unicode="," horiz-adv-x="512" d="M109 262h184q63 0 63 -63v-153q0 -46 46 -46l-1 -18v-46q0 -130 -125 -130h-101q-39 0 -39 -38v137q8 55 56 55h26q34 0 34 34v6h-35q-63 0 -63 63v153q0 46 -45 46z" />
<glyph unicode="-" horiz-adv-x="676" d="M90 437v276q0 -46 44 -46h406q44 0 44 46v-276q0 47 -44 47h-24h-382q-44 0 -44 -47z" />
<glyph unicode="." horiz-adv-x="512" d="M109 262h184q63 0 63 -63v-153q0 -46 46 -46h-185q-63 0 -63 63v153q0 46 -45 46z" />
<glyph unicode="/" horiz-adv-x="614" d="M-88 -193q35 0 47 42l522 1684q1 3 1 7q0 37 -48 37h285q-35 0 -47 -42l-522 -1684q-1 -3 -1 -7q0 -37 48 -37h-285z" />
<glyph unicode="0" horiz-adv-x="1253" d="M135 246v1053q0 242 246 242h489q246 0 246 -242v-1053q0 -246 -246 -246h-489q-246 0 -246 246zM427 380l318 873h-253q-65 0 -65 -65v-808zM509 297h249q65 0 65 65v798z" />
<glyph unicode="1" horiz-adv-x="917" d="M61 1025q74 0 74 74v195q0 246 246 246h477q-76 0 -76 -70v-1400q0 -70 75 -70h-440q74 0 74 70v1181q-64 -7 -64 -68v-56q0 -102 -102 -102h-264z" />
<glyph unicode="2" horiz-adv-x="1150" d="M67 1030q74 0 74 75v195q0 241 246 241h390q246 0 246 -241v-344q0 -152 -153 -219q-142 -43 -284 -87q-153 -56 -153 -181v-111q0 -65 65 -65h167q65 0 65 65v56q0 102 116 102h246q-69 0 -69 -75v-194q0 -246 -246 -246h-390q-246 0 -246 246v343q0 155 153 222 q142 43 284 85q152 55 152 180v111q0 65 -65 65h-167q-65 0 -65 -65v-55q0 -103 -116 -103h-250z" />
<glyph unicode="3" horiz-adv-x="1149" d="M57 517h251q117 0 117 -102v-56q0 -65 65 -65h167q65 0 65 65v261l-251 -1q-70 0 -70 -74v251q0 116 98 116h223v274q0 65 -65 65h-167q-65 0 -65 -65v-56q0 -102 -116 -102h-251q74 0 74 74v196q0 246 246 246h391q246 0 246 -246v-1050q0 -247 -247 -247h-390 q-246 0 -246 247v195q0 74 -75 74z" />
<glyph unicode="4" horiz-adv-x="1146" d="M131 677v257q0 90 101 199q89 97 194 149.5t211 104.5q83 52 83 120v33l366 -1q-76 0 -76 -70v-38v-1362q0 -69 75 -69h-440q74 0 74 69v368h-341q-111 0 -177 59q-70 64 -70 181zM423 788q0 -65 65 -65h167q65 0 65 65v339q-297 -142 -297 -232v-107z" />
<glyph unicode="5" horiz-adv-x="1138" d="M53 516h246q116 0 116 -102v-56q0 -65 65 -65h167q65 0 65 65v111q0 125 -153 181q-142 44 -284 87q-153 67 -153 219v344q0 241 246 241h533q102 0 102 -116v-241q0 70 -74 70l-449 -1q-65 0 -65 -65v-111q0 -125 152 -180q142 -42 284 -85q153 -67 153 -222v-343 q0 -246 -246 -246h-390q-246 0 -246 246v194q0 75 -69 75z" />
<glyph unicode="6" horiz-adv-x="1157" d="M57 0q79 0 79 75v1216q0 250 241 250h195q75 0 75 75v-265q-14 -107 -107 -107h-42q-65 0 -65 -65v-102q0 -115 153 -175l284 -96q153 -72 153 -217v-344q0 -246 -251 -246zM433 357q0 -65 65 -65h163q65 0 65 65v111q0 66 -79 118q-64 43 -214 96v-325z" />
<glyph unicode="7" horiz-adv-x="1335" d="M63 1024q74 0 74 75v194q0 246 246 246l746 1q70 0 70 74v-217q0 -93 -93 -269l-314 -731q-69 -143 -69 -303v-94h-264q-70 0 -70 -74v217q0 62 93 268l317 725q22 50 22 76q0 35 -42 35h-285q-65 0 -65 -65v-56q0 -102 -102 -102h-264z" />
<glyph unicode="8" horiz-adv-x="1153" d="M134 241v343q0 116 104 187q-104 71 -104 186v343q0 116 70 180q66 60 177 60h387q111 0 177 -60q70 -64 70 -180v-343q0 -115 -105 -186q105 -71 105 -187v-343q0 -117 -70 -181q-66 -60 -177 -60h-387q-111 0 -177 60q-70 64 -70 181zM426 353q0 -65 65 -65h167 q65 0 65 65v200q0 65 -65 65h-167q-65 0 -65 -65v-200zM426 988q0 -65 65 -65h167q65 0 65 65v200q0 65 -65 65h-167q-65 0 -65 -65v-200z" />
<glyph unicode="9" horiz-adv-x="1152" d="M48 516h264q102 0 102 -102v-56q0 -65 65 -65h167q65 0 65 65v112q0 71 -78 122q-46 31 -217 103q-294 123 -294 335v270q0 116 70 180q65 60 177 60l388 1q246 0 246 -241v-1053q0 -246 -246 -246h-390q-245 0 -245 246v195q0 74 -74 74zM414 1082q0 -91 297 -232v338 q0 65 -65 65h-167q-65 0 -65 -65v-106z" />
<glyph unicode=":" horiz-adv-x="512" d="M109 262h184q63 0 63 -63v-153q0 -46 46 -46h-185q-63 0 -63 63v153q0 46 -45 46zM109 1179h184q63 0 63 -63v-153q0 -46 46 -46h-185q-63 0 -63 63v153q0 46 -45 46z" />
<glyph unicode=";" horiz-adv-x="512" d="M109 262h184q63 0 63 -63v-153q0 -46 46 -46l-1 -18v-46q0 -130 -125 -130h-101q-39 0 -39 -38v137q8 55 56 55h26q34 0 34 34v6h-35q-63 0 -63 63v153q0 46 -45 46zM109 1179h184q63 0 63 -63v-153q0 -46 46 -46h-185q-63 0 -63 63v153q0 46 -45 46z" />
<glyph unicode="&#x3c;" horiz-adv-x="1706" d="M263 604l998 645q20 13 35 25q34 29 35 49v-250q0 -51 -27 -79q-10 -11 -68 -48q-112 -71 -535 -336l536 -336q58 -37 68 -48q27 -28 27 -79v-250q0 32 -70 74l-627 404z" />
<glyph unicode="=" horiz-adv-x="1706" d="M254 275v276q0 -47 44 -47h1110q44 1 44 47v-277q0 48 -44 48h-24l-1086 -1q-44 0 -44 -46zM254 668v276q0 -47 44 -47h1110q44 1 44 47v-277q0 48 -44 48h-24l-1086 -1q-44 0 -44 -46z" />
<glyph unicode="&#x3e;" horiz-adv-x="1706" d="M375 -103v250q0 51 27 79q10 11 68 48q112 71 536 336l-535 336q-58 37 -68 48q-27 28 -27 79v250q1 -30 70 -74l998 -645l-372 -229l-627 -404q-70 -42 -70 -74z" />
<glyph unicode="?" horiz-adv-x="1146" d="M59 1026q74 0 74 74v195q0 245 246 245h388q111 0 177 -60q70 -63 70 -180v-204q0 -106 -84 -230q-92 -135 -211 -171q-152 -47 -219 -96q-75 -54 -75 -129v-92h-292v173q0 175 292 299q297 141 297 232v106q0 65 -65 65h-167q-65 0 -65 -65v-60q0 -102 -102 -102h-264z M133 262h184q63 0 63 -63v-153q0 -46 46 -46h-185q-63 0 -63 63v153q0 46 -45 46z" />
<glyph unicode="@" horiz-adv-x="1687" d="M134 -148v1472q0 191 192 191h1034q191 0 191 -191v-1133q0 -191 -191 -191h-675q-195 0 -195 192v267q0 113 119 169q110 38 221 75q119 47 119 136v87q0 50 -51 50h-126q-51 0 -51 -50v-40q0 -72 -83 -83h-206q58 0 58 58v151q0 188 195 188h300q195 0 195 -188v-734 q0 -51 51 -51h42q51 0 51 51v959q0 51 -51 51h-861q-50 0 -50 -51l-1 -1298q0 -51 51 -51h1060q79 0 79 -79v-206q0 58 -58 58h-1168q-191 0 -191 191zM721 279q0 -51 51 -51h126q51 0 51 51v253q-228 -81 -228 -167v-86z" />
<glyph unicode="A" horiz-adv-x="1157" d="M61 1030q74 0 74 74v195q0 242 251 242h385q251 0 251 -242v-1224q0 -75 79 -75l-715 -1q-251 0 -251 246v344q0 145 153 217l284 96q153 60 153 175v111q0 65 -65 65h-163q-65 0 -65 -65v-51q0 -93 -106 -107h-265zM432 357q0 -65 65 -65h163q65 0 65 65v325 q-151 -53 -214 -96q-79 -52 -79 -118v-111z" />
<glyph unicode="B" horiz-adv-x="1153" d="M60 0q74 0 74 74v1392q0 74 -74 74h708q111 0 177 -60q70 -64 70 -180v-343q0 -115 -105 -186q105 -71 105 -187v-343q0 -117 -70 -181q-66 -60 -177 -60h-708zM426 353q0 -65 65 -65h167q65 0 65 65v200q0 65 -65 65h-167q-65 0 -65 -65v-200zM426 988q0 -65 65 -65h167 q65 0 65 65v200q0 65 -65 65h-167q-65 0 -65 -65v-200z" />
<glyph unicode="C" horiz-adv-x="1152" d="M136 247v1046q0 246 246 246h389q246 0 246 -246v-195q0 -74 74 -74h-264q-102 0 -102 102v56q0 65 -65 65h-167q-65 0 -65 -65v-824q0 -65 65 -65h167q65 0 65 65v56q0 102 102 102h264q-74 0 -74 -74v-195q0 -246 -246 -246h-389q-246 0 -246 246z" />
<glyph unicode="D" horiz-adv-x="1152" d="M62 0q74 0 74 74v1392q0 74 -74 74h708q111 0 177 -60q70 -64 70 -180v-1059q0 -117 -70 -181q-66 -60 -177 -60h-708zM428 353q0 -65 65 -65h167q65 0 65 65v835q0 65 -65 65h-167q-65 0 -65 -65v-835z" />
<glyph unicode="E" horiz-adv-x="1152" d="M152 247v1053q0 241 246 241l388 -1q111 0 177 -60q70 -64 70 -180v-204q0 -106 -85 -230q-91 -135 -210 -171q-152 -47 -219 -96q-75 -54 -75 -129v-112q0 -65 65 -65h167q65 0 65 65v56q0 102 102 102h264q-74 0 -74 -74v-195q0 -246 -246 -246h-389q-246 0 -246 246z M444 850q297 141 297 232v106q0 65 -65 65h-167q-65 0 -65 -65v-338z" />
<glyph unicode="F" horiz-adv-x="1284" d="M62 0q74 0 74 74v1392q0 74 -74 74h840q245 0 245 -246v-196q0 -74 75 -74h-265q-102 0 -102 102v62q0 65 -65 65h-297q-65 0 -65 -65v-276h329q98 0 98 -116v-251q0 74 -70 74l-358 1v-518q0 -102 -102 -102h-263z" />
<glyph unicode="G" horiz-adv-x="1150" d="M134 246v1046q0 245 245 245h390q246 0 246 -245v-195q0 -74 74 -74h-264q-102 0 -102 102v55q0 65 -65 65h-167q-65 0 -65 -65v-823q0 -65 65 -65h167q65 0 65 65l1 264h-63q-74 0 -74 -74v264q0 102 98 102h4l56 -1l168 -1q102 -1 102 -102v-563q0 -246 -246 -246h-390 q-245 0 -245 246z" />
<glyph unicode="H" horiz-adv-x="1258" d="M61 0q74 0 74 70v1400q-1 70 -74 70h250q116 0 116 -98v-460q0 -65 65 -65l198 2l73 -2h2q63 0 63 65v460q0 98 116 98h251q-76 0 -76 -70v-38l1 -1362q0 -70 74 -70h-251q-116 0 -116 98v463q0 65 -65 65h-269q-65 0 -65 -65v-463q0 -98 -116 -98h-251z" />
<glyph unicode="I" horiz-adv-x="561" d="M61 0q75 0 75 70l-1 1400q-1 70 -74 70h442q-77 0 -77 -70v-38l1 -1362q0 -70 74 -70h-440z" />
<glyph unicode="J" horiz-adv-x="1149" d="M57 911h251q117 0 117 -102v-450q0 -65 65 -65h167q65 0 65 65v1088q0 97 116 97h251q-74 0 -74 -70v-1226q0 -247 -247 -247h-390q-246 0 -246 247v589q0 74 -75 74z" />
<glyph unicode="K" horiz-adv-x="1157" d="M65 0q74 0 74 74v1390q0 74 -74 74h263q102 0 102 -102l1 -523q297 94 297 241v282q0 102 102 102h264q-74 0 -74 -74v-416q0 -157 -102 -213q100 -56 100 -215v-546q0 -74 74 -74h-264q-102 0 -102 102v482q0 69 -45 69q-10 0 -20 -4l-168 -70q-62 -35 -62 -87l-1 -390 q0 -102 -102 -102h-263z" />
<glyph unicode="L" horiz-adv-x="1157" d="M63 1543h251q116 0 116 -98v-1087q0 -65 65 -65h167q65 0 65 65v37q0 102 117 102h251q-75 0 -75 -74v-177q0 -246 -246 -246h-390q-247 0 -247 246v1227q0 70 -74 70z" />
<glyph unicode="M" horiz-adv-x="1543" d="M61 0q75 0 75 70l-1 1400q-1 70 -74 70h250q51 0 79 -27q11 -10 48 -68q72 -112 336 -535l329 531q38 60 48 70q29 29 80 29h250q-73 0 -74 -70v-21v-1379q0 -70 74 -70h-251q-116 0 -116 98v748q0 55 -42 55q-32 0 -69 -58l-235 -372l-229 372q-36 58 -68 58 q-43 0 -43 -55v-748q0 -98 -116 -98h-251z" />
<glyph unicode="N" horiz-adv-x="1543" d="M61 0q75 0 75 70l-1 1400q-1 70 -74 70h250q50 0 78 -28q25 -33 49 -67q80 -110 676 -957v952q0 35 30 65q34 35 87 35h250q-73 0 -74 -70v-21v-1379q0 -70 74 -70h-251q-64 0 -112 56l-579 787q-41 56 -73 56q-38 0 -38 -53v-748q0 -98 -116 -98h-251z" />
<glyph unicode="O" horiz-adv-x="1253" d="M135 246v1053q0 242 246 242h489q246 0 246 -242v-1053q0 -246 -246 -246h-489q-246 0 -246 246zM427 362q0 -65 65 -65h266q65 0 65 65v826q0 65 -65 65h-266q-65 0 -65 -65v-826z" />
<glyph unicode="P" horiz-adv-x="1154" d="M63 2q74 0 74 74l1 1390q0 74 -74 74h708q111 0 177 -60q70 -64 70 -180v-267q0 -96 -81 -187t-214 -151q-152 -70 -216 -121q-78 -63 -78 -137l-1 -333q0 -102 -102 -102h-264zM430 850q296 141 296 232v106q0 65 -64 65h-167q-65 0 -65 -65v-338z" />
<glyph unicode="Q" horiz-adv-x="1242" d="M135 246v1053q0 242 246 242h394q246 0 246 -242l1 -1011h27q251 0 251 -241v-195q0 -75 74 -75h-264q-107 14 -107 107v51q0 65 -65 65h-557q-246 0 -246 246zM427 362q0 -65 65 -65h172q65 0 65 65v826q0 65 -65 65h-172q-65 0 -65 -65v-826z" />
<glyph unicode="R" horiz-adv-x="1154" d="M63 0q74 0 74 74v1390q0 74 -74 74h707q112 0 177 -60q70 -64 70 -181v-343q0 -114 -101 -184q100 -56 100 -215v-481q0 -74 74 -74h-264q-102 0 -102 102v347q0 65 -65 65h-168q-63 0 -63 -70v-342q0 -102 -102 -102h-263zM428 848q297 141 297 231v107q0 65 -65 65 h-167q-65 0 -65 -65v-338z" />
<glyph unicode="S" horiz-adv-x="1150" d="M64 516h246q116 0 116 -102v-56q0 -65 65 -65h167q65 0 65 65v111q0 125 -153 181q-142 44 -283 87q-153 67 -153 219v344q0 241 246 241h389q246 0 246 -241v-195q0 -75 74 -75h-250q-116 0 -116 103v55q0 65 -65 65h-167q-65 0 -65 -65v-111q0 -125 153 -180 q142 -42 283 -85q153 -67 153 -222v-343q0 -246 -246 -246h-389q-246 0 -246 246v194q0 75 -70 75z" />
<glyph unicode="T" horiz-adv-x="1501" d="M29 1024q75 0 75 74v196q0 246 245 246h800q246 0 246 -246v-196q0 -74 74 -74h-264q-102 0 -102 102v62q0 65 -65 65h-78q-65 0 -65 -65v-1114q0 -74 75 -74h-440q74 0 74 74l-1 1114q0 65 -65 65h-77q-65 0 -65 -65v-62q0 -102 -102 -102h-265z" />
<glyph unicode="U" horiz-adv-x="1256" d="M62 1540h250q116 0 116 -98l1 -1080q0 -65 65 -65h270q65 0 65 65v1080q0 98 117 98h250q-76 0 -76 -70v-1224q0 -246 -246 -246h-492q-246 0 -246 246v1224q0 70 -74 70z" />
<glyph unicode="V" horiz-adv-x="1255" d="M22 1540h250q97 0 116 -98l171 -1080q10 -65 65 -65h20q56 0 65 65l160 1080q17 98 117 98h250q-61 0 -76 -70l-5 -26l-165 -1198q-17 -128 -70 -184q-57 -62 -176 -62h-222q-118 0 -175 62q-52 56 -71 184l-180 1224q-12 70 -74 70z" />
<glyph unicode="W" horiz-adv-x="1466" d="M-33 1540h251q56 0 82 -23q22 -21 34 -75l42 -277l89 -481q10 -53 62 -53q43 0 68 66l145 372l131 -372q23 -67 66 -67q55 0 64 54l131 758q12 54 36 76t80 22h251q-67 0 -74 -70l-150 -1400q1 -70 74 -70h-250q-51 0 -80 29q-10 10 -48 70q-72 112 -239 531 q-48 -123 -89 -221q-99 -235 -148 -310q-38 -60 -48 -70q-29 -29 -80 -29h-250q73 0 74 70l1 21l-150 1379q-8 70 -75 70z" />
<glyph unicode="X" horiz-adv-x="1274" d="M60 0q75 0 75 74v416q0 157 101 213q-100 56 -100 215v546q0 74 -74 74h264q102 0 102 -102v-482q0 -69 46 -69q9 0 19 4l168 70q70 26 122 75q61 59 61 120v282q0 102 102 102h264q-74 0 -74 -74v-416q0 -157 -102 -213q100 -56 100 -215v-546q0 -74 75 -74h-265 q-102 0 -102 102v482q0 69 -45 69q-9 0 -20 -4l-168 -70q-183 -76 -182 -195v-282q0 -102 -102 -102h-265z" />
<glyph unicode="Y" horiz-adv-x="1274" d="M62 1538h264q102 0 102 -102v-482q0 -61 62 -61q14 0 28 6l143 60q70 26 122 75q61 59 61 120v282q0 102 102 102h264q-74 0 -74 -74v-416q0 -166 -106 -225l-249 -145v-604q0 -74 74 -74h-264q-102 0 -102 102v438q-36 -16 -74 -16q-104 0 -195 104q-84 96 -84 182v654 q0 74 -74 74z" />
<glyph unicode="Z" horiz-adv-x="1335" d="M63 1024q74 0 74 75v194q0 246 246 246l746 1q70 0 70 74v-217q0 -169 -93 -269l-569 -725q-32 -38 -32 -67q0 -44 52 -44h285q65 0 65 65v56q0 102 102 102h264q-74 0 -74 -74v-195q0 -246 -246 -246h-746q-70 0 -70 -74v217q0 168 93 268l569 725q31 39 31 68 q0 43 -51 43h-285q-65 0 -65 -65v-56q0 -102 -102 -102h-264z" />
<glyph unicode="[" horiz-adv-x="928" d="M187 -434q46 0 46 46v62v1820q0 46 -46 46h387q153 0 153 -152v-122q0 -46 46 -46h-164q-63 0 -63 63v39q0 40 -41 40h-50q-41 0 -41 -40v-1538q0 -40 40 -40h51q40 0 40 40v38q0 64 64 64h164q-46 0 -46 -46v-122q0 -152 -153 -152h-387z" />
<glyph unicode="\" horiz-adv-x="569" d="M-106 1577q35 0 47 -42l522 -1684q1 -3 1 -7q0 -37 -48 -37h285q-35 0 -47 42l-522 1684q-1 3 -1 7q0 37 48 37h-285z" />
<glyph unicode="]" horiz-adv-x="928" d="M153 -114q46 0 46 -46v-122q0 -152 153 -152h387q-46 0 -46 46v62v1820q0 46 46 46h-387q-153 0 -153 -152v-122q0 -46 -46 -46h164q63 0 63 63v39q0 40 41 40h50q41 0 41 -40v-1538q0 -40 -40 -40h-51q-40 0 -40 40v38q0 64 -64 64h-164z" />
<glyph unicode="^" horiz-adv-x="2048" d="M546 901q20 0 50 47l432 668l153 -249l271 -420q29 -47 50 -47h-168q-34 0 -53 18q-7 7 -32 46q-48 75 -225 359l-225 -359q-25 -38 -32 -45q-19 -18 -53 -18h-168z" />
<glyph unicode="_" d="M-1 -303q0 -37 34 -37h957q34 1 34 37v-218q0 38 -34 38h-19l-938 -1q-34 0 -34 -36v217z" />
<glyph unicode="`" d="M324 1546h108q31 0 58 -43l115 -195q20 -32 34 -32h-107q-30 0 -58 43l-116 195q-19 32 -34 32z" />
<glyph unicode="a" horiz-adv-x="1157" d="M61 1030q74 0 74 74v195q0 242 251 242h385q251 0 251 -242v-1224q0 -75 79 -75l-715 -1q-251 0 -251 246v344q0 145 153 217l284 96q153 60 153 175v111q0 65 -65 65h-163q-65 0 -65 -65v-51q0 -93 -106 -107h-265zM432 357q0 -65 65 -65h163q65 0 65 65v325 q-151 -53 -214 -96q-79 -52 -79 -118v-111z" />
<glyph unicode="b" horiz-adv-x="1153" d="M60 0q74 0 74 74v1392q0 74 -74 74h708q111 0 177 -60q70 -64 70 -180v-343q0 -115 -105 -186q105 -71 105 -187v-343q0 -117 -70 -181q-66 -60 -177 -60h-708zM426 353q0 -65 65 -65h167q65 0 65 65v200q0 65 -65 65h-167q-65 0 -65 -65v-200zM426 988q0 -65 65 -65h167 q65 0 65 65v200q0 65 -65 65h-167q-65 0 -65 -65v-200z" />
<glyph unicode="c" horiz-adv-x="1152" d="M136 247v1046q0 246 246 246h389q246 0 246 -246v-195q0 -74 74 -74h-264q-102 0 -102 102v56q0 65 -65 65h-167q-65 0 -65 -65v-824q0 -65 65 -65h167q65 0 65 65v56q0 102 102 102h264q-74 0 -74 -74v-195q0 -246 -246 -246h-389q-246 0 -246 246z" />
<glyph unicode="d" horiz-adv-x="1152" d="M62 0q74 0 74 74v1392q0 74 -74 74h708q111 0 177 -60q70 -64 70 -180v-1059q0 -117 -70 -181q-66 -60 -177 -60h-708zM428 353q0 -65 65 -65h167q65 0 65 65v835q0 65 -65 65h-167q-65 0 -65 -65v-835z" />
<glyph unicode="e" horiz-adv-x="1152" d="M152 247v1053q0 241 246 241l388 -1q111 0 177 -60q70 -64 70 -180v-343q0 -142 -153 -213q-142 -48 -283 -96q-153 -61 -153 -178v-112q0 -65 65 -65h167q65 0 65 65v56q0 102 102 102h264q-74 0 -74 -74v-195q0 -246 -246 -246h-389q-246 0 -246 246zM444 850 q297 141 297 232v106q0 65 -65 65h-167q-65 0 -65 -65v-338z" />
<glyph unicode="f" horiz-adv-x="1284" d="M62 0q74 0 74 74v1392q0 74 -74 74h840q245 0 245 -246v-196q0 -74 75 -74h-265q-102 0 -102 102v62q0 65 -65 65h-297q-65 0 -65 -65v-276h329q98 0 98 -116v-251q0 74 -70 74l-358 1v-518q0 -102 -102 -102h-263z" />
<glyph unicode="g" horiz-adv-x="1150" d="M134 246v1046q0 245 245 245h390q246 0 246 -245v-195q0 -74 74 -74h-264q-102 0 -102 102v55q0 65 -65 65h-167q-65 0 -65 -65v-823q0 -65 65 -65h167q64 0 65 65l1 264h-63q-74 0 -74 -74v264q0 102 98 102h4l56 -1l168 -1q102 -1 102 -102v-563q0 -246 -246 -246h-390 q-245 0 -245 246z" />
<glyph unicode="h" horiz-adv-x="1258" d="M61 0q74 0 74 70v1400q-1 70 -74 70h250q116 0 116 -98v-460q0 -65 65 -65l198 2l73 -2h2q63 0 63 65v460q0 98 116 98h251q-76 0 -76 -70v-38l1 -1362q0 -70 74 -70h-251q-116 0 -116 98v463q0 65 -65 65h-269q-65 0 -65 -65v-463q0 -98 -116 -98h-251z" />
<glyph unicode="i" horiz-adv-x="561" d="M61 0q75 0 75 70l-1 1400q-1 70 -74 70h442q-77 0 -77 -70v-38l1 -1362q0 -70 74 -70h-440z" />
<glyph unicode="j" horiz-adv-x="1149" d="M57 911h251q117 0 117 -102v-450q0 -65 65 -65h167q65 0 65 65v1088q0 97 116 97h251q-74 0 -74 -70v-1226q0 -247 -247 -247h-390q-246 0 -246 247v589q0 74 -75 74z" />
<glyph unicode="k" horiz-adv-x="1157" d="M65 0q74 0 74 74v1390q0 74 -74 74h263q102 0 102 -102l1 -523q297 94 297 241v282q0 102 102 102h264q-74 0 -74 -74v-416q0 -157 -102 -213q100 -56 100 -215v-546q0 -74 74 -74h-264q-102 0 -102 102v482q0 69 -45 69q-10 0 -20 -4l-168 -70q-62 -35 -62 -87l-1 -390 q0 -102 -102 -102h-263z" />
<glyph unicode="l" horiz-adv-x="1157" d="M63 1543h251q116 0 116 -98v-1087q0 -65 65 -65h167q65 0 65 65v37q0 102 117 102h251q-75 0 -75 -74v-177q0 -246 -246 -246h-390q-247 0 -247 246v1227q0 70 -74 70z" />
<glyph unicode="m" horiz-adv-x="1543" d="M61 0q75 0 75 70l-1 1400q-1 70 -74 70h250q51 0 79 -27q11 -10 48 -68q72 -112 336 -535l329 531q38 60 48 70q29 29 80 29h250q-73 0 -74 -70v-21v-1379q0 -70 74 -70h-251q-116 0 -116 98v748q0 55 -42 55q-32 0 -69 -58l-235 -372l-229 372q-36 58 -68 58 q-43 0 -43 -55v-748q0 -98 -116 -98h-251z" />
<glyph unicode="n" horiz-adv-x="1543" d="M61 0q75 0 75 70l-1 1400q-1 70 -74 70h250q50 0 78 -28q25 -33 49 -67q80 -110 676 -957v952q0 35 30 65q34 35 87 35h250q-73 0 -74 -70v-21v-1379q0 -70 74 -70h-251q-64 0 -112 56l-579 787q-41 56 -73 56q-38 0 -38 -53v-748q0 -98 -116 -98h-251z" />
<glyph unicode="o" horiz-adv-x="1253" d="M135 246v1053q0 242 246 242h489q246 0 246 -242v-1053q0 -246 -246 -246h-489q-246 0 -246 246zM427 362q0 -65 65 -65h266q65 0 65 65v826q0 65 -65 65h-266q-65 0 -65 -65v-826z" />
<glyph unicode="p" horiz-adv-x="1154" d="M63 2q74 0 74 74l1 1390q0 74 -74 74h708q111 0 177 -60q70 -64 70 -180v-343q0 -142 -153 -213l-284 -96q-152 -61 -152 -178l-1 -366q0 -102 -102 -102h-264zM430 850q296 141 296 232v106q0 65 -64 65h-167q-65 0 -65 -65v-338z" />
<glyph unicode="q" horiz-adv-x="1242" d="M135 246v1053q0 242 246 242h394q246 0 246 -242l1 -1011h27q251 0 251 -241v-195q0 -75 74 -75h-264q-107 14 -107 107v51q0 65 -65 65h-557q-246 0 -246 246zM427 362q0 -65 65 -65h172q65 0 65 65v826q0 65 -65 65h-172q-65 0 -65 -65v-826z" />
<glyph unicode="r" horiz-adv-x="1154" d="M63 0q74 0 74 74v1390q0 74 -74 74h707q112 0 177 -60q70 -64 70 -181v-343q0 -114 -101 -184q100 -56 100 -215v-481q0 -74 74 -74h-264q-102 0 -102 102v347q0 65 -65 65h-168q-63 0 -63 -70v-342q0 -102 -102 -102h-263zM428 848q297 141 297 231v107q0 65 -65 65 h-167q-65 0 -65 -65v-338z" />
<glyph unicode="s" horiz-adv-x="1150" d="M64 516h246q116 0 116 -102v-56q0 -65 65 -65h167q65 0 65 65v111q0 125 -153 181q-142 44 -283 87q-153 67 -153 219v344q0 241 246 241h389q246 0 246 -241v-195q0 -75 74 -75h-250q-116 0 -116 103v55q0 65 -65 65h-167q-65 0 -65 -65v-111q0 -125 153 -180 q142 -42 283 -85q153 -67 153 -222v-343q0 -246 -246 -246h-389q-246 0 -246 246v194q0 75 -70 75z" />
<glyph unicode="t" horiz-adv-x="1501" d="M29 1024q75 0 75 74v196q0 246 245 246h800q246 0 246 -246v-196q0 -74 74 -74h-264q-102 0 -102 102v62q0 65 -65 65h-78q-65 0 -65 -65v-1114q0 -74 75 -74h-440q74 0 74 74l-1 1114q0 65 -65 65h-77q-65 0 -65 -65v-62q0 -102 -102 -102h-265z" />
<glyph unicode="u" horiz-adv-x="1256" d="M62 1540h250q116 0 116 -98l1 -1080q0 -65 65 -65h270q65 0 65 65v1080q0 98 117 98h250q-76 0 -76 -70v-1224q0 -246 -246 -246h-492q-246 0 -246 246v1224q0 70 -74 70z" />
<glyph unicode="v" horiz-adv-x="1255" d="M22 1540h250q97 0 116 -98l171 -1080q10 -65 65 -65h20q56 0 65 65l160 1080q17 98 117 98h250q-61 0 -76 -70l-5 -26l-165 -1198q-17 -128 -70 -184q-57 -62 -176 -62h-222q-118 0 -175 62q-52 56 -71 184l-180 1224q-12 70 -74 70z" />
<glyph unicode="w" horiz-adv-x="1466" d="M-33 1540h251q56 0 82 -23q22 -21 34 -75l42 -277l89 -481q10 -53 62 -53q43 0 68 66l145 372l131 -372q23 -67 66 -67q55 0 64 54l131 758q12 54 36 76t80 22h251q-67 0 -74 -70l-150 -1400q1 -70 74 -70h-250q-51 0 -80 29q-10 10 -48 70q-72 112 -239 531 q-48 -123 -89 -221q-99 -235 -148 -310q-38 -60 -48 -70q-29 -29 -80 -29h-250q73 0 74 70l1 21l-150 1379q-8 70 -75 70z" />
<glyph unicode="x" horiz-adv-x="1274" d="M60 0q75 0 75 74v416q0 157 101 213q-100 56 -100 215v546q0 74 -74 74h264q102 0 102 -102v-482q0 -69 46 -69q9 0 19 4l168 70q70 26 122 75q61 59 61 120v282q0 102 102 102h264q-74 0 -74 -74v-416q0 -157 -102 -213q100 -56 100 -215v-546q0 -74 75 -74h-265 q-102 0 -102 102v482q0 69 -45 69q-9 0 -20 -4l-168 -70q-183 -76 -182 -195v-282q0 -102 -102 -102h-265z" />
<glyph unicode="y" horiz-adv-x="1274" d="M62 1538h264q102 0 102 -102v-482q0 -61 62 -61q14 0 28 6l143 60q70 26 122 75q61 59 61 120v282q0 102 102 102h264q-74 0 -74 -74v-416q0 -166 -106 -225l-249 -145v-604q0 -74 74 -74h-264q-102 0 -102 102v438q-36 -16 -74 -16q-104 0 -195 104q-84 96 -84 182v654 q0 74 -74 74z" />
<glyph unicode="z" horiz-adv-x="1335" d="M63 1024q74 0 74 75v194q0 246 246 246l746 1q70 0 70 74v-217q0 -169 -93 -269l-569 -725q-32 -38 -32 -67q0 -44 52 -44h285q65 0 65 65v56q0 102 102 102h264q-74 0 -74 -74v-195q0 -246 -246 -246h-746q-70 0 -70 -74v217q0 168 93 268l569 725q31 39 31 68 q0 43 -51 43h-285q-65 0 -65 -65v-56q0 -102 -102 -102h-264z" />
<glyph unicode="{" d="M167 531q102 56 102 213v631q0 102 102 102h265q-75 0 -75 -74v-659q0 -157 -101 -213q100 -56 100 -215v-656q0 -74 74 -74h-264q-102 0 -102 102v626q0 160 -101 217z" />
<glyph unicode="|" d="M355 1566h308q-76 0 -76 -70v-38l1 -1871q0 -70 74 -70h-306q74 0 74 70v1909q-1 70 -75 70z" />
<glyph unicode="}" d="M394 1477h265q102 0 102 -102v-631q0 -157 102 -213q-101 -57 -101 -217v-626q0 -102 -102 -102h-264q74 0 74 74v656q0 159 100 215q-101 56 -101 213v659q0 74 -75 74z" />
<glyph unicode="~" horiz-adv-x="1706" d="M144 798h118q45 0 45 -46v-27q0 -29 29 -29h1087q110 0 110 -110v-88q0 -33 33 -33h-118q-46 0 -46 46v28q0 29 -29 29l-1086 -1q-110 0 -110 110v88q0 33 -33 33z" />
<glyph unicode="&#xa1;" horiz-adv-x="530" d="M42 1q77 0 77 70v38l69 984q5 69 -74 69h300q-80 0 -75 -69l71 -1022q1 -70 74 -70h-442zM129 1541h162q63 0 63 -63v-154q0 -45 45 -45h-162q-63 0 -63 62v154q0 46 -45 46z" />
<glyph unicode="&#xa2;" horiz-adv-x="1020" d="M181 191v812q0 191 191 191h108l1 88q0 70 -75 70h249q-76 0 -76 -70v-88h96q191 0 191 -191v-151q0 -58 58 -58h-206q-79 0 -79 79v44q0 50 -50 50h-130q-51 0 -51 -50v-640q0 -50 51 -50h130q50 0 50 50v43q0 79 79 79h206q-58 0 -58 -57v-151q0 -191 -191 -191h-96 l-1 -88q0 -70 75 -70h-249q76 0 76 70v88h-108q-191 0 -191 191z" />
<glyph unicode="&#xa3;" horiz-adv-x="1020" d="M59 96q240 153 240 408q0 102 -45 194h-195v93h150q-105 143 -105 325q0 196 115.5 315t310.5 119q205 0 312 -117q104 -114 104 -321v-33h-164v19q0 303 -254 303q-122 0 -185 -80q-58 -74 -58 -199q0 -182 106 -331h326v-93h-287q35 -112 35 -155q0 -213 -238 -418 q122 70 234 70q53 0 154.5 -26t150.5 -26q89 0 168 62l55 -139q-112 -91 -248 -91q-58 0 -178 39t-184 39q-130 0 -232 -90z" />
<glyph unicode="&#xa4;" horiz-adv-x="1364" d="M80 1356l167 168q-28 -28 -2 -55l8 -8l158 -156h544l165 164q26 27 -2 55l167 -168q-28 29 -55 3l-14 -15l-143 -143l1 -625l162 -161q26 -26 55 3l-167 -168q27 28 1 55l-7 8l-158 156h-544l-165 -164q-26 -27 2 -55l-168 168q29 -29 56 -3l14 15l141 143v625l-161 161 q-26 26 -55 -3zM454 666q0 -35 36 -35h389q36 0 36 35v448q0 35 -36 35h-389q-36 0 -36 -35v-448z" />
<glyph unicode="&#xa5;" horiz-adv-x="1020" d="M-23 1522h201l336 -725l352 725h185l-263 -512h209v-101h-262l-86 -170h348v-98h-399v-641h-174v641h-397v98h346l-84 170h-262v101h209z" />
<glyph unicode="&#xa6;" d="M438 -350v758h150v-758h-150zM438 674v758h150v-758h-150z" />
<glyph unicode="&#xa7;" d="M125 739q0 216 166 297q-96 83 -96 221q0 320 321 320q307 0 307 -313v-29h-157v10q0 189 -150 189q-160 0 -160 -164q0 -107 179 -202q65 -35 104 -58q136 -81 187 -143q73 -87 73 -218q0 -204 -168 -301q98 -74 98 -225q0 -326 -325 -326q-334 0 -334 305q0 29 2 43 h160v-24q0 -180 166 -180t166 165q0 118 -188 225q-66 38 -105 62q-127 80 -176 139q-70 84 -70 207zM270 784q0 -115 90 -180q95 -62 283 -186q109 66 109 194t-266 292q-79 49 -107 67q-109 -65 -109 -187z" />
<glyph unicode="&#xa8;" d="M270 1311v170h156v-170h-156zM598 1311v170h156v-170h-156z" />
<glyph unicode="&#xa9;" horiz-adv-x="1690" d="M154 235v1000q0 229 234 229h894q233 0 233 -229v-1000q0 -233 -233 -233h-894q-234 0 -234 233zM432 345q0 -62 61 -62h682q62 0 62 62v784q0 62 -62 62h-682q-61 0 -61 -62v-784zM604 457v538q0 126 127 126h200q126 0 126 -126v-101q0 -38 39 -38h-136q-53 0 -53 53 v28q0 34 -33 34h-86q-34 0 -34 -34v-423q0 -34 34 -34h86q33 0 33 34v28q0 53 53 53h136q-39 0 -39 -38v-100q0 -127 -126 -127h-200q-127 0 -127 127z" />
<glyph unicode="&#xaa;" horiz-adv-x="686" d="M68 938q0 121 70 181q49 41 186 83l1 1q138 43 138 97v74q0 94 -131 94q-127 0 -127 -127v-14l-115 1q6 237 256 237q236 0 236 -217v-471q0 -60 51 -60q3 0 10 1t10 1v-86q-40 -6 -71 -6q-107 0 -111 116q-57 -128 -205 -128q-198 0 -198 223zM188 940q0 -125 111 -125 q81 0 125 59q39 52 39 136v159q-24 -23 -128 -61l-11 -4q-88 -32 -111 -62q-25 -34 -25 -102z" />
<glyph unicode="&#xab;" horiz-adv-x="987" d="M129 506v145l305 314v-187l-196 -200l196 -205v-187zM551 506v145l305 314v-187l-197 -200l197 -205v-187z" />
<glyph unicode="&#xac;" horiz-adv-x="1706" d="M254 721v139h1198v-502h-137v363h-1061z" />
<glyph unicode="&#xad;" horiz-adv-x="676" d="M90 485v181h494v-181h-494z" />
<glyph unicode="&#xae;" horiz-adv-x="1690" d="M154 235v1000q0 229 234 229h894q233 0 233 -229v-1000q0 -233 -233 -233h-894q-234 0 -234 233zM432 345q0 -62 61 -62h682q62 0 62 62v784q0 62 -62 62h-682q-61 0 -61 -62v-784zM593 330q38 0 38 38v714q0 38 -38 38h363q127 0 127 -123v-177q0 -58 -52 -95 q51 -28 51 -110v-247q0 -38 38 -38h-136q-52 0 -52 53v178q0 33 -33 33h-87q-32 0 -32 -36v-176q0 -52 -52 -52h-135zM780 765q153 73 153 120v54q0 34 -34 34h-85q-34 0 -34 -34v-174z" />
<glyph unicode="&#xaf;" d="M287 1331v133h450v-133h-450z" />
<glyph unicode="&#xb0;" horiz-adv-x="674" d="M49 1167q0 121 84 205t205 84q120 0 203.5 -84.5t83.5 -204.5q0 -121 -84 -203.5t-205 -82.5t-204 82.5t-83 203.5zM143 1169q0 -82 56.5 -139t138.5 -57q81 0 136.5 57t55.5 139t-55.5 137.5t-136.5 55.5q-82 0 -138.5 -56t-56.5 -137z" />
<glyph unicode="&#xb1;" horiz-adv-x="1706" d="M254 29v141h1198v-141h-1198zM254 713v139h528v340h142v-340h528v-139h-528v-340h-142v340h-528z" />
<glyph unicode="&#xb2;" horiz-adv-x="674" d="M66 606v35q0 183 176 324q14 11 49 39q99 80 137 120q53 55 53 156q0 166 -149 166q-148 0 -148 -191v-30h-108q0 5 -1 16t-1 16q0 281 262 281q122 0 192 -65.5t70 -186.5q0 -116 -55 -192q-29 -40 -125 -111l-47 -35q-187 -141 -191 -247l426 -1v-94h-540z" />
<glyph unicode="&#xb3;" horiz-adv-x="674" d="M53 872v9h113v-15q0 -188 156 -188q170 0 170 188q0 181 -203 181q-24 0 -35 -3v86h22q187 0 187 162q0 154 -148 154q-135 0 -135 -170v-14h-108v12q0 119 64.5 190.5t182.5 71.5q113 0 182 -58q74 -62 74 -173q0 -181 -143 -209q174 -27 174 -226q0 -282 -284 -282 q-269 0 -269 284z" />
<glyph unicode="&#xb4;" d="M390 1276q14 0 34 32l115 195q28 43 58 43h108q-15 0 -34 -32l-116 -195q-27 -43 -58 -43h-107z" />
<glyph unicode="&#xb5;" horiz-adv-x="1151" d="M-113 -428l318 1499h180l-129 -600q-14 -65 -14 -133q0 -207 200 -207q153 0 237 132q55 88 95 272l115 536h178l-156 -732l-4 -20q-18 -87 -18 -112q0 -68 72 -68q18 0 32 2l-30 -143q-50 -10 -109 -10q-116 0 -149 129q-89 -131 -271 -131q-157 0 -256 116l-110 -530 h-181z" />
<glyph unicode="&#xb6;" d="M66 1130q0 166 116 261q108 88 277 88h499v-86h-120v-1393h-111v1393h-176v-1393h-113v782q-163 8 -263 95q-109 94 -109 253z" />
<glyph unicode="&#xb7;" horiz-adv-x="512" d="M125 762q0 55 37 92t92 37q56 0 93.5 -36.5t37.5 -92.5q0 -55 -38 -93t-93 -38t-92 38t-37 93z" />
<glyph unicode="&#xb8;" d="M330 -342q8 -2 16 -3q126 -22 162 -22q110 0 110 84q0 88 -112 88q-16 0 -37 -4v199h76v-102h6q90 0 145 -41q62 -46 62 -133q0 -195 -246 -195q-80 0 -182 27v102z" />
<glyph unicode="&#xb9;" horiz-adv-x="674" d="M102 1286v78h13q213 0 223 172h90v-930h-111v680h-215z" />
<glyph unicode="&#xba;" horiz-adv-x="741" d="M68 1139q0 426 303 426t303 -426q0 -193 -55 -293q-72 -131 -248 -131q-177 0 -249 131q-54 99 -54 293zM197 1139q0 -145 22 -212q39 -118 152 -118q112 0 151 118q23 69 23 212q0 141 -23 209q-39 116 -151 116q-114 0 -152 -115q-22 -65 -22 -210z" />
<glyph unicode="&#xbb;" horiz-adv-x="987" d="M129 186v187l199 205l-199 200v187l305 -314v-145zM551 186v187l199 205l-199 200v187l305 -314v-145z" />
<glyph unicode="&#xbc;" horiz-adv-x="1628" d="M96 1303v73h13q203 0 213 160h86v-868h-105v635h-207zM301 -31l899 1581h125l-899 -1581h-125zM1026 221v82l358 563h95v-563h90v-82h-90v-221h-103v221h-350zM1114 303h262l13 440z" />
<glyph unicode="&#xbd;" horiz-adv-x="1628" d="M96 1303v73h13q203 0 213 160h86v-868h-105v635h-207zM301 -31l899 1581h125l-899 -1581h-125zM1047 33q0 166 170 303q14 11 61 48q79 62 89 71q50 45 65 91q12 35 12 83q0 153 -144 153q-139 0 -139 -176v-28h-104v30q0 260 250 260q114 0 181.5 -60t67.5 -173 q0 -108 -53 -180q-28 -38 -118 -103q-18 -12 -45 -32q-80 -60 -117 -98q-64 -69 -66 -133l408 -1v-88l-517 1v16q-1 11 -1 16z" />
<glyph unicode="&#xbe;" horiz-adv-x="1626" d="M51 918v6h107v-13q0 -178 149 -178q162 0 162 176q0 168 -193 168h-34v80h22q176 0 176 152q0 143 -139 143q-129 0 -129 -160v-14h-104v14q0 113 62 177.5t175 64.5q108 0 173 -53q71 -57 71 -162q0 -171 -137 -195q168 -28 168 -211q0 -126 -73 -194t-200 -68 q-256 0 -256 267zM301 -31l899 1581h125l-899 -1581h-125zM1026 221v82l358 563h95v-563h90v-82h-90v-221h-103v221h-350zM1114 303h262l13 440z" />
<glyph unicode="&#xbf;" horiz-adv-x="1018" d="M154 360q0 101 34 184q47 117 148 218l2 2q149 149 149 330q0 16 -2 43q-1 7 -2 16h160q2 -34 2 -78q0 -120 -42 -210q-33 -71 -123 -178q-5 -6 -17 -20q-129 -153 -129 -309q0 -105 47 -170q54 -75 154 -75q219 0 219 305v31h166v-27q0 -457 -381 -457 q-180 0 -282.5 107t-102.5 288zM481 1331v209h170v-209h-170z" />
<glyph unicode="&#xc0;" horiz-adv-x="1126" d="M61 1030q74 0 74 74v195q0 242 251 242h385q251 0 251 -242v-1224q0 -75 79 -75l-715 -1q-251 0 -251 246v344q0 145 153 217l284 96q153 60 153 175v111q0 65 -65 65h-163q-65 0 -65 -65v-51q0 -93 -106 -107h-265zM375 1958h108q31 0 58 -43l115 -195q20 -32 34 -32 h-107q-30 0 -58 43l-116 195q-19 32 -34 32zM432 357q0 -65 65 -65h163q65 0 65 65v325q-151 -53 -214 -96q-79 -52 -79 -118v-111z" />
<glyph unicode="&#xc1;" horiz-adv-x="1126" d="M61 1030q74 0 74 74v195q0 242 251 242h385q251 0 251 -242v-1224q0 -75 79 -75l-715 -1q-251 0 -251 246v344q0 145 153 217l284 96q153 60 153 175v111q0 65 -65 65h-163q-65 0 -65 -65v-51q0 -93 -106 -107h-265zM432 357q0 -65 65 -65h163q65 0 65 65v325 q-151 -53 -214 -96q-79 -52 -79 -118v-111zM441 1688q14 0 34 32l115 195q28 43 58 43h108q-15 0 -34 -32l-116 -195q-27 -43 -58 -43h-107z" />
<glyph unicode="&#xc2;" horiz-adv-x="1126" d="M61 1030q74 0 74 74v195q0 242 251 242h385q251 0 251 -242v-1224q0 -75 79 -75l-715 -1q-251 0 -251 246v344q0 145 153 217l284 96q153 60 153 175v111q0 65 -65 65h-163q-65 0 -65 -65v-51q0 -93 -106 -107h-265zM307 1688l172 270h168l172 -270h-98l-158 166 l-158 -166h-98zM432 357q0 -65 65 -65h163q65 0 65 65v325q-151 -53 -214 -96q-79 -52 -79 -118v-111z" />
<glyph unicode="&#xc3;" horiz-adv-x="1126" d="M61 1030q74 0 74 74v195q0 242 251 242h385q251 0 251 -242v-1224q0 -75 79 -75l-715 -1q-251 0 -251 246v344q0 145 153 217l284 96q153 60 153 175v111q0 65 -65 65h-163q-65 0 -65 -65v-51q0 -93 -106 -107h-265zM110 1938h81q31 0 31 -31v-19q0 -20 20 -20h703 q75 0 75 -75v-60q0 -22 23 -22h-81q-31 0 -31 31v19q0 20 -20 20l-703 -1q-75 0 -75 75v60q0 23 -23 23zM432 357q0 -65 65 -65h163q65 0 65 65v325q-151 -53 -214 -96q-79 -52 -79 -118v-111z" />
<glyph unicode="&#xc4;" horiz-adv-x="1126" d="M61 1030q74 0 74 74v195q0 242 251 242h385q251 0 251 -242v-1224q0 -75 79 -75l-715 -1q-251 0 -251 246v344q0 145 153 217l284 96q153 60 153 175v111q0 65 -65 65h-163q-65 0 -65 -65v-51q0 -93 -106 -107h-265zM321 1723v170h156v-170h-156zM432 357q0 -65 65 -65 h163q65 0 65 65v325q-151 -53 -214 -96q-79 -52 -79 -118v-111zM649 1723v170h156v-170h-156z" />
<glyph unicode="&#xc5;" horiz-adv-x="1126" d="M31 0l418 1530h223l424 -1530h-174l-117 444h-488l-112 -444h-174zM356 600h410l-205 807zM369 1780q0 81 55.5 136.5t136.5 55.5t137 -55.5t56 -136.5t-56 -137t-137 -56t-136.5 56t-55.5 137zM463 1780q0 -39 29.5 -69t68.5 -30q40 0 69 29.5t29 69.5t-29 69t-69 29 q-39 0 -68.5 -29.5t-29.5 -68.5z" />
<glyph unicode="&#xc6;" horiz-adv-x="1612" d="M-27 0l596 1540h940v-160h-594v-495h555v-156h-555v-567h601v-162h-771v444h-421l-166 -444h-185zM385 600h360v780h-65z" />
<glyph unicode="&#xc7;" horiz-adv-x="1157" d="M136 247v1046q0 246 246 246h389q246 0 246 -246v-195q0 -74 74 -74h-264q-102 0 -102 102v56q0 65 -65 65h-167q-65 0 -65 -65v-824q0 -65 65 -65h167q65 0 65 65v56q0 102 102 102h264q-74 0 -74 -74v-195q0 -246 -246 -246h-389q-246 0 -246 246zM379 -342q8 -2 16 -3 q126 -22 162 -22q110 0 110 84q0 88 -112 88q-16 0 -37 -4v199h76v-102h6q90 0 145 -41q62 -46 62 -133q0 -195 -246 -195q-80 0 -182 27v102z" />
<glyph unicode="&#xc8;" horiz-adv-x="1004" d="M152 247v1053q0 241 246 241l388 -1q111 0 177 -60q70 -64 70 -180v-204q0 -106 -85 -230q-91 -135 -210 -171q-152 -47 -219 -96q-75 -54 -75 -129v-112q0 -65 65 -65h167q65 0 65 65v56q0 102 102 102h264q-74 0 -74 -74v-195q0 -246 -246 -246h-389q-246 0 -246 246z M347 1958h108q31 0 58 -43l115 -195q20 -32 34 -32h-107q-30 0 -58 43l-116 195q-19 32 -34 32zM444 850q297 141 297 232v106q0 65 -65 65h-167q-65 0 -65 -65v-338z" />
<glyph unicode="&#xc9;" horiz-adv-x="1004" d="M152 247v1053q0 241 246 241l388 -1q111 0 177 -60q70 -64 70 -180v-204q0 -106 -85 -230q-91 -135 -210 -171q-152 -47 -219 -96q-75 -54 -75 -129v-112q0 -65 65 -65h167q65 0 65 65v56q0 102 102 102h264q-74 0 -74 -74v-195q0 -246 -246 -246h-389q-246 0 -246 246z M413 1688q14 0 34 32l115 195q28 43 58 43h108q-15 0 -34 -32l-116 -195q-27 -43 -58 -43h-107zM444 850q297 141 297 232v106q0 65 -65 65h-167q-65 0 -65 -65v-338z" />
<glyph unicode="&#xca;" horiz-adv-x="1004" d="M152 247v1053q0 241 246 241l388 -1q111 0 177 -60q70 -64 70 -180v-204q0 -106 -85 -230q-91 -135 -210 -171q-152 -47 -219 -96q-75 -54 -75 -129v-112q0 -65 65 -65h167q65 0 65 65v56q0 102 102 102h264q-74 0 -74 -74v-195q0 -246 -246 -246h-389q-246 0 -246 246z M279 1688l172 270h168l172 -270h-98l-158 166l-158 -166h-98zM444 850q297 141 297 232v106q0 65 -65 65h-167q-65 0 -65 -65v-338z" />
<glyph unicode="&#xcb;" horiz-adv-x="1004" d="M152 247v1053q0 241 246 241l388 -1q111 0 177 -60q70 -64 70 -180v-204q0 -106 -85 -230q-91 -135 -210 -171q-152 -47 -219 -96q-75 -54 -75 -129v-112q0 -65 65 -65h167q65 0 65 65v56q0 102 102 102h264q-74 0 -74 -74v-195q0 -246 -246 -246h-389q-246 0 -246 246z M293 1723v170h156v-170h-156zM444 850q297 141 297 232v106q0 65 -65 65h-167q-65 0 -65 -65v-338zM621 1723v170h156v-170h-156z" />
<glyph unicode="&#xcc;" horiz-adv-x="451" d="M37 1958h108q31 0 58 -43l115 -195q20 -32 34 -32h-107q-30 0 -58 43l-116 195q-19 32 -34 32zM61 0q75 0 75 70l-1 1400q-1 70 -74 70h442q-77 0 -77 -70v-38l1 -1362q0 -70 74 -70h-440z" />
<glyph unicode="&#xcd;" horiz-adv-x="451" d="M61 0q75 0 75 70l-1 1400q-1 70 -74 70h442q-77 0 -77 -70v-38l1 -1362q0 -70 74 -70h-440zM103 1688q14 0 34 32l115 195q28 43 58 43h108q-15 0 -34 -32l-116 -195q-27 -43 -58 -43h-107z" />
<glyph unicode="&#xce;" horiz-adv-x="451" d="M-31 1688l172 270h168l172 -270h-98l-158 166l-158 -166h-98zM61 0q75 0 75 70l-1 1400q-1 70 -74 70h442q-77 0 -77 -70v-38l1 -1362q0 -70 74 -70h-440z" />
<glyph unicode="&#xcf;" horiz-adv-x="451" d="M-17 1723v170h156v-170h-156zM61 0q75 0 75 70l-1 1400q-1 70 -74 70h442q-77 0 -77 -70v-38l1 -1362q0 -70 74 -70h-440zM311 1723v170h156v-170h-156z" />
<glyph unicode="&#xd0;" horiz-adv-x="1210" d="M0 754v147h156v639h436q294 0 416 -225q94 -171 94 -494q0 -503 -176 -696q-71 -78 -170 -105q-72 -20 -203 -20h-397v754h-156zM328 147h223q195 0 260 93q102 147 102 528q0 311 -42 423q-76 200 -326 200h-217v-490h305v-147h-305v-607z" />
<glyph unicode="&#xd1;" horiz-adv-x="1188" d="M61 0q75 0 75 70l-1 1400q-1 70 -74 70h250q50 0 78 -28q25 -33 49 -67q80 -110 676 -957v952q0 35 30 65q34 35 87 35h250q-73 0 -74 -70v-21v-1379q0 -70 74 -70h-251q-64 0 -112 56l-579 787q-41 56 -73 56q-38 0 -38 -53v-748q0 -98 -116 -98h-251zM368 1708 q44 195 176 195q22 0 41 -6l107 -33q1 0 4 -1q16 -3 24 -3q56 0 68 70h74q-28 -201 -166 -201q-31 0 -59 10l-87 31q-11 4 -34 4q-51 0 -72 -66h-76z" />
<glyph unicode="&#xd2;" horiz-adv-x="1200" d="M135 246v1053q0 242 246 242h489q246 0 246 -242v-1053q0 -246 -246 -246h-489q-246 0 -246 246zM412 1958h108q31 0 58 -43l115 -195q20 -32 34 -32h-107q-30 0 -58 43l-116 195q-19 32 -34 32zM427 362q0 -65 65 -65h266q65 0 65 65v826q0 65 -65 65h-266 q-65 0 -65 -65v-826z" />
<glyph unicode="&#xd3;" horiz-adv-x="1200" d="M135 246v1053q0 242 246 242h489q246 0 246 -242v-1053q0 -246 -246 -246h-489q-246 0 -246 246zM427 362q0 -65 65 -65h266q65 0 65 65v826q0 65 -65 65h-266q-65 0 -65 -65v-826zM478 1688q14 0 34 32l115 195q28 43 58 43h108q-15 0 -34 -32l-116 -195 q-27 -43 -58 -43h-107z" />
<glyph unicode="&#xd4;" horiz-adv-x="1200" d="M135 246v1053q0 242 246 242h489q246 0 246 -242v-1053q0 -246 -246 -246h-489q-246 0 -246 246zM344 1688l172 270h168l172 -270h-98l-158 166l-158 -166h-98zM427 362q0 -65 65 -65h266q65 0 65 65v826q0 65 -65 65h-266q-65 0 -65 -65v-826z" />
<glyph unicode="&#xd5;" horiz-adv-x="1200" d="M135 246v1053q0 242 246 242h489q246 0 246 -242v-1053q0 -246 -246 -246h-489q-246 0 -246 246zM352 1708q44 195 176 195q22 0 41 -6l107 -33q1 0 4 -1q16 -3 24 -3q56 0 68 70h74q-28 -201 -166 -201q-31 0 -59 10l-87 31q-11 4 -34 4q-51 0 -72 -66h-76zM427 362 q0 -65 65 -65h266q65 0 65 65v826q0 65 -65 65h-266q-65 0 -65 -65v-826z" />
<glyph unicode="&#xd6;" horiz-adv-x="1200" d="M135 246v1053q0 242 246 242h489q246 0 246 -242v-1053q0 -246 -246 -246h-489q-246 0 -246 246zM358 1723v170h156v-170h-156zM427 362q0 -65 65 -65h266q65 0 65 65v826q0 65 -65 65h-266q-65 0 -65 -65v-826zM686 1723v170h156v-170h-156z" />
<glyph unicode="&#xd7;" horiz-adv-x="1706" d="M293 141l469 469l-469 469l98 99l469 -469l469 469l98 -99l-469 -469l469 -469l-98 -96l-469 467l-469 -467z" />
<glyph unicode="&#xd8;" horiz-adv-x="1200" d="M78 14l117 193q-86 182 -86 563q0 359 74 537q112 270 417 270q225 0 344 -135l80 139l90 -57l-106 -183q86 -186 86 -571q0 -363 -74 -538q-112 -269 -420 -269q-221 0 -342 143l-90 -151zM287 770q0 -227 26 -369l535 885q-74 137 -248 137q-214 0 -280 -240 q-33 -120 -33 -413zM352 264q69 -149 248 -149q223 0 287 256q28 114 28 436q0 184 -26 344z" />
<glyph unicode="&#xd9;" horiz-adv-x="1180" d="M62 1540h250q116 0 116 -98l1 -1080q0 -65 65 -65h270q65 0 65 65v1080q0 98 117 98h250q-76 0 -76 -70v-1224q0 -246 -246 -246h-492q-246 0 -246 246v1224q0 70 -74 70zM402 1958h108q31 0 58 -43l115 -195q20 -32 34 -32h-107q-30 0 -58 43l-116 195q-19 32 -34 32z " />
<glyph unicode="&#xda;" horiz-adv-x="1180" d="M62 1540h250q116 0 116 -98l1 -1080q0 -65 65 -65h270q65 0 65 65v1080q0 98 117 98h250q-76 0 -76 -70v-1224q0 -246 -246 -246h-492q-246 0 -246 246v1224q0 70 -74 70zM468 1688q14 0 34 32l115 195q28 43 58 43h108q-15 0 -34 -32l-116 -195q-27 -43 -58 -43h-107z " />
<glyph unicode="&#xdb;" horiz-adv-x="1180" d="M62 1540h250q116 0 116 -98l1 -1080q0 -65 65 -65h270q65 0 65 65v1080q0 98 117 98h250q-76 0 -76 -70v-1224q0 -246 -246 -246h-492q-246 0 -246 246v1224q0 70 -74 70zM334 1688l172 270h168l172 -270h-98l-158 166l-158 -166h-98z" />
<glyph unicode="&#xdc;" horiz-adv-x="1180" d="M62 1540h250q116 0 116 -98l1 -1080q0 -65 65 -65h270q65 0 65 65v1080q0 98 117 98h250q-76 0 -76 -70v-1224q0 -246 -246 -246h-492q-246 0 -246 246v1224q0 70 -74 70zM348 1723v170h156v-170h-156zM676 1723v170h156v-170h-156z" />
<glyph unicode="&#xdd;" horiz-adv-x="1028" d="M62 1538h264q102 0 102 -102v-482q0 -61 62 -61q14 0 28 6l143 60q70 26 122 75q61 59 61 120v282q0 102 102 102h264q-74 0 -74 -74v-416q0 -166 -106 -225l-249 -145v-604q0 -74 74 -74h-264q-102 0 -102 102v438q-36 -16 -74 -16q-104 0 -195 104q-84 96 -84 182v654 q0 74 -74 74zM392 1688q14 0 34 32l115 195q28 43 58 43h108q-15 0 -34 -32l-116 -195q-27 -43 -58 -43h-107z" />
<glyph unicode="&#xde;" horiz-adv-x="1085" d="M137 0v1540h172v-274h223q240 0 356 -93q128 -102 128 -335q0 -465 -477 -465h-230v-373h-172zM309 528h226q303 0 303 310q0 153 -82 219q-74 59 -232 59h-215v-588z" />
<glyph unicode="&#xdf;" horiz-adv-x="985" d="M121 0v1077q0 471 358 471q348 0 348 -372q0 -217 -143 -299q201 -84 201 -424q0 -482 -320 -482q-84 0 -137 41v152q59 -47 125 -47q108 0 144 122q20 68 20 210q0 161 -33 236q-50 114 -188 114q-29 0 -47 -2v137q12 -2 34 -2q187 0 187 221q0 260 -197 260t-197 -272 v-1141h-155z" />
<glyph unicode="&#xe0;" horiz-adv-x="913" d="M61 1030q74 0 74 74v195q0 242 251 242h385q251 0 251 -242v-1224q0 -75 79 -75l-715 -1q-251 0 -251 246v344q0 145 153 217l284 96q153 60 153 175v111q0 65 -65 65h-163q-65 0 -65 -65v-51q0 -93 -106 -107h-265zM285 1546h108q31 0 58 -43l115 -195q20 -32 34 -32 h-107q-30 0 -58 43l-116 195q-19 32 -34 32zM432 357q0 -65 65 -65h163q65 0 65 65v325q-151 -53 -214 -96q-79 -52 -79 -118v-111z" />
<glyph unicode="&#xe1;" horiz-adv-x="913" d="M61 1030q74 0 74 74v195q0 242 251 242h385q251 0 251 -242v-1224q0 -75 79 -75l-715 -1q-251 0 -251 246v344q0 145 153 217l284 96q153 60 153 175v111q0 65 -65 65h-163q-65 0 -65 -65v-51q0 -93 -106 -107h-265zM351 1276q14 0 34 32l115 195q28 43 58 43h108 q-15 0 -34 -32l-116 -195q-27 -43 -58 -43h-107zM432 357q0 -65 65 -65h163q65 0 65 65v325q-151 -53 -214 -96q-79 -52 -79 -118v-111z" />
<glyph unicode="&#xe2;" horiz-adv-x="913" d="M61 1030q74 0 74 74v195q0 242 251 242h385q251 0 251 -242v-1224q0 -75 79 -75l-715 -1q-251 0 -251 246v344q0 145 153 217l284 96q153 60 153 175v111q0 65 -65 65h-163q-65 0 -65 -65v-51q0 -93 -106 -107h-265zM217 1276l172 270h168l172 -270h-98l-158 166 l-158 -166h-98zM432 357q0 -65 65 -65h163q65 0 65 65v325q-151 -53 -214 -96q-79 -52 -79 -118v-111z" />
<glyph unicode="&#xe3;" horiz-adv-x="1160" d="M61 1030q74 0 74 74v195q0 242 251 242h385q251 0 251 -242v-1224q0 -75 79 -75l-715 -1q-251 0 -251 246v344q0 145 153 217l284 96q153 60 153 175v111q0 65 -65 65h-163q-65 0 -65 -65v-51q0 -93 -106 -107h-265zM110 1938h81q31 0 31 -31v-19q0 -20 20 -20h703 q75 0 75 -75v-60q0 -22 23 -22h-81q-31 0 -31 31v19q0 20 -20 20l-703 -1q-75 0 -75 75v60q0 23 -23 23zM432 357q0 -65 65 -65h163q65 0 65 65v325q-151 -53 -214 -96q-79 -52 -79 -118v-111z" />
<glyph unicode="&#xe4;" horiz-adv-x="913" d="M61 1030q74 0 74 74v195q0 242 251 242h385q251 0 251 -242v-1224q0 -75 79 -75l-715 -1q-251 0 -251 246v344q0 145 153 217l284 96q153 60 153 175v111q0 65 -65 65h-163q-65 0 -65 -65v-51q0 -93 -106 -107h-265zM231 1311v170h156v-170h-156zM432 357q0 -65 65 -65 h163q65 0 65 65v325q-151 -53 -214 -96q-79 -52 -79 -118v-111zM559 1311v170h156v-170h-156z" />
<glyph unicode="&#xe5;" horiz-adv-x="913" d="M90 291q0 169 91 253q67 62 252 124l3 1q176 59 176 138v106q0 136 -170 136t-170 -183v-20h-151q3 175 84 256.5t256 81.5q163 0 239 -74t76 -236v-673q0 -84 68 -84q7 0 22 3q2 0 4 1l1 -123q-62 -10 -95 -10q-143 0 -149 165q-77 -182 -273 -182q-135 0 -204 96 q-60 83 -60 224zM252 293q0 -180 145 -180q110 0 169 88q50 76 50 192v228q-38 -42 -168 -89q-6 -2 -16 -6q-103 -36 -139 -80q-41 -50 -41 -153zM268 1434q0 80 56.5 136t136.5 56q81 0 136.5 -55.5t55.5 -136.5t-56 -138t-136 -57q-81 0 -137 57t-56 138zM362 1434 q0 -39 30 -70t69 -31q40 0 69 30.5t29 70.5t-29 69t-69 29q-39 0 -69 -29.5t-30 -68.5z" />
<glyph unicode="&#xe6;" horiz-adv-x="1423" d="M94 291q0 168 96 258q55 51 219 108q52 18 76 27q53 20 68 27q39 19 57 43q15 20 15 80v55q0 166 -174 166q-175 0 -175 -183q0 -4 1.5 -13t1.5 -13h-152q3 175 84 256.5t256 81.5q195 0 266 -121q87 121 244 121q354 0 354 -512q0 -44 -4 -103h-557q-2 -36 -2 -98 q0 -162 31 -240q49 -122 184 -122q184 0 184 280h158q-2 -188 -82 -296q-91 -122 -272 -122q-215 0 -297 199q-142 -199 -316 -199q-134 0 -203 96q-61 85 -61 224zM256 293q0 -178 145 -178q115 0 172 92q48 77 48 199v215q-31 -40 -164 -87q-8 -3 -21 -8 q-102 -36 -139 -80q-41 -50 -41 -153zM774 700h391v37q0 314 -192 314q-199 0 -199 -322v-29z" />
<glyph unicode="&#xe7;" horiz-adv-x="942" d="M136 247v1046q0 246 246 246h389q246 0 246 -246v-195q0 -74 74 -74h-264q-102 0 -102 102v56q0 65 -65 65h-167q-65 0 -65 -65v-824q0 -65 65 -65h167q65 0 65 65v56q0 102 102 102h264q-74 0 -74 -74v-195q0 -246 -246 -246h-389q-246 0 -246 246zM285 -342q8 -2 16 -3 q126 -22 162 -22q110 0 110 84q0 88 -112 88q-16 0 -37 -4v199h76v-102h6q90 0 145 -41q62 -46 62 -133q0 -195 -246 -195q-80 0 -182 27v102z" />
<glyph unicode="&#xe8;" horiz-adv-x="901" d="M152 247v1053q0 241 246 241l388 -1q111 0 177 -60q70 -64 70 -180v-343q0 -142 -153 -213q-142 -48 -283 -96q-153 -61 -153 -178v-112q0 -65 65 -65h167q65 0 65 65v56q0 102 102 102h264q-74 0 -74 -74v-195q0 -246 -246 -246h-389q-246 0 -246 246zM289 1546h108 q31 0 58 -43l115 -195q20 -32 34 -32h-107q-30 0 -58 43l-116 195q-19 32 -34 32zM444 850q297 141 297 232v106q0 65 -65 65h-167q-65 0 -65 -65v-338z" />
<glyph unicode="&#xe9;" horiz-adv-x="901" d="M152 247v1053q0 241 246 241l388 -1q111 0 177 -60q70 -64 70 -180v-343q0 -142 -153 -213q-142 -48 -283 -96q-153 -61 -153 -178v-112q0 -65 65 -65h167q65 0 65 65v56q0 102 102 102h264q-74 0 -74 -74v-195q0 -246 -246 -246h-389q-246 0 -246 246zM355 1276 q14 0 34 32l115 195q28 43 58 43h108q-15 0 -34 -32l-116 -195q-27 -43 -58 -43h-107zM444 850q297 141 297 232v106q0 65 -65 65h-167q-65 0 -65 -65v-338z" />
<glyph unicode="&#xea;" horiz-adv-x="901" d="M152 247v1053q0 241 246 241l388 -1q111 0 177 -60q70 -64 70 -180v-343q0 -142 -153 -213q-142 -48 -283 -96q-153 -61 -153 -178v-112q0 -65 65 -65h167q65 0 65 65v56q0 102 102 102h264q-74 0 -74 -74v-195q0 -246 -246 -246h-389q-246 0 -246 246zM221 1276l172 270 h168l172 -270h-98l-158 166l-158 -166h-98zM444 850q297 141 297 232v106q0 65 -65 65h-167q-65 0 -65 -65v-338z" />
<glyph unicode="&#xeb;" horiz-adv-x="901" d="M152 247v1053q0 241 246 241l388 -1q111 0 177 -60q70 -64 70 -180v-343q0 -142 -153 -213q-142 -48 -283 -96q-153 -61 -153 -178v-112q0 -65 65 -65h167q65 0 65 65v56q0 102 102 102h264q-74 0 -74 -74v-195q0 -246 -246 -246h-389q-246 0 -246 246zM235 1311v170h156 v-170h-156zM444 850q297 141 297 232v106q0 65 -65 65h-167q-65 0 -65 -65v-338zM563 1311v170h156v-170h-156z" />
<glyph unicode="&#xec;" horiz-adv-x="408" d="M17 1546h108q31 0 58 -43l115 -195q20 -32 34 -32h-107q-30 0 -58 43l-116 195q-19 32 -34 32zM121 0v1151h166v-1151h-166z" />
<glyph unicode="&#xed;" horiz-adv-x="408" d="M83 1276q14 0 34 32l115 195q28 43 58 43h108q-15 0 -34 -32l-116 -195q-27 -43 -58 -43h-107zM121 0v1151h166v-1151h-166z" />
<glyph unicode="&#xee;" horiz-adv-x="408" d="M-51 1276l172 270h168l172 -270h-98l-158 166l-158 -166h-98zM121 0v1151h166v-1151h-166z" />
<glyph unicode="&#xef;" horiz-adv-x="408" d="M-37 1311v170h156v-170h-156zM121 0v1151h166v-1151h-166zM291 1311v170h156v-170h-156z" />
<glyph unicode="&#xf0;" horiz-adv-x="989" d="M90 545q0 573 373 573q71 0 129 -35q-50 75 -172 168l-242 -135l-45 82l205 117q-47 33 -168 98l41 127q140 -69 266 -151l271 151l53 -82l-242 -137q186 -144 267 -344q71 -176 71 -432q0 -261 -72 -396q-96 -180 -331 -180q-236 0 -332 180q-72 136 -72 396zM262 551 q0 -196 29 -285q51 -157 203 -157q149 0 201 159q30 93 30 283q0 193 -29 282q-51 156 -202 156t-203 -156q-29 -89 -29 -282z" />
<glyph unicode="&#xf1;" horiz-adv-x="963" d="M61 0q75 0 75 70l-1 1400q-1 70 -74 70h250q50 0 78 -28q25 -33 49 -67q80 -110 676 -957v952q0 35 30 65q34 35 87 35h250q-73 0 -74 -70v-21v-1379q0 -70 74 -70h-251q-64 0 -112 56l-579 787q-41 56 -73 56q-38 0 -38 -53v-748q0 -98 -116 -98h-251zM252 1296 q44 195 176 195q22 0 41 -6l107 -33q1 0 4 -1q16 -3 24 -3q56 0 68 70h74q-28 -201 -166 -201q-31 0 -59 10l-87 31q-11 4 -34 4q-51 0 -72 -66h-76z" />
<glyph unicode="&#xf2;" horiz-adv-x="989" d="M135 246v1053q0 242 246 242h489q246 0 246 -242v-1053q0 -246 -246 -246h-489q-246 0 -246 246zM314 1546h108q31 0 58 -43l115 -195q20 -32 34 -32h-107q-30 0 -58 43l-116 195q-19 32 -34 32zM427 362q0 -65 65 -65h266q65 0 65 65v826q0 65 -65 65h-266 q-65 0 -65 -65v-826z" />
<glyph unicode="&#xf3;" horiz-adv-x="989" d="M135 246v1053q0 242 246 242h489q246 0 246 -242v-1053q0 -246 -246 -246h-489q-246 0 -246 246zM380 1276q14 0 34 32l115 195q28 43 58 43h108q-15 0 -34 -32l-116 -195q-27 -43 -58 -43h-107zM427 362q0 -65 65 -65h266q65 0 65 65v826q0 65 -65 65h-266 q-65 0 -65 -65v-826z" />
<glyph unicode="&#xf4;" horiz-adv-x="989" d="M135 246v1053q0 242 246 242h489q246 0 246 -242v-1053q0 -246 -246 -246h-489q-246 0 -246 246zM246 1276l172 270h168l172 -270h-98l-158 166l-158 -166h-98zM427 362q0 -65 65 -65h266q65 0 65 65v826q0 65 -65 65h-266q-65 0 -65 -65v-826z" />
<glyph unicode="&#xf5;" horiz-adv-x="989" d="M135 246v1053q0 242 246 242h489q246 0 246 -242v-1053q0 -246 -246 -246h-489q-246 0 -246 246zM254 1296q44 195 176 195q22 0 41 -6l107 -33q1 0 4 -1q16 -3 24 -3q56 0 68 70h74q-28 -201 -166 -201q-31 0 -59 10l-87 31q-11 4 -34 4q-51 0 -72 -66h-76zM427 362 q0 -65 65 -65h266q65 0 65 65v826q0 65 -65 65h-266q-65 0 -65 -65v-826z" />
<glyph unicode="&#xf6;" horiz-adv-x="989" d="M135 246v1053q0 242 246 242h489q246 0 246 -242v-1053q0 -246 -246 -246h-489q-246 0 -246 246zM260 1311v170h156v-170h-156zM427 362q0 -65 65 -65h266q65 0 65 65v826q0 65 -65 65h-266q-65 0 -65 -65v-826zM588 1311v170h156v-170h-156z" />
<glyph unicode="&#xf7;" horiz-adv-x="1706" d="M254 541v139h1198v-139h-1198zM729 242q0 51 37 88t88 37t88 -37t37 -88q0 -52 -36.5 -88.5t-88.5 -36.5q-53 0 -89 36t-36 89zM729 979q0 52 36.5 89.5t88.5 37.5t88.5 -37.5t36.5 -89.5t-36.5 -88.5t-88.5 -36.5t-88.5 36.5t-36.5 88.5z" />
<glyph unicode="&#xf8;" horiz-adv-x="989" d="M29 -25l129 193q-68 158 -68 399q0 270 69 415q97 202 335 202q179 0 274 -107l102 152l78 -53l-123 -185q74 -136 74 -428q0 -594 -405 -594q-178 0 -281 111l-107 -162zM262 578q0 -142 12 -236l400 596q-53 104 -180 104q-156 0 -206 -168q-26 -88 -26 -296zM309 223 q47 -114 185 -114q152 0 203 173q28 95 28 296q0 113 -16 239z" />
<glyph unicode="&#xf9;" horiz-adv-x="963" d="M62 1540h250q116 0 116 -98l1 -1080q0 -65 65 -65h270q65 0 65 65v1080q0 98 117 98h250q-76 0 -76 -70v-1224q0 -246 -246 -246h-492q-246 0 -246 246v1224q0 70 -74 70zM287 1546h108q31 0 58 -43l115 -195q20 -32 34 -32h-107q-30 0 -58 43l-116 195q-19 32 -34 32z " />
<glyph unicode="&#xfa;" horiz-adv-x="963" d="M62 1540h250q116 0 116 -98l1 -1080q0 -65 65 -65h270q65 0 65 65v1080q0 98 117 98h250q-76 0 -76 -70v-1224q0 -246 -246 -246h-492q-246 0 -246 246v1224q0 70 -74 70zM353 1276q14 0 34 32l115 195q28 43 58 43h108q-15 0 -34 -32l-116 -195q-27 -43 -58 -43h-107z " />
<glyph unicode="&#xfb;" horiz-adv-x="963" d="M62 1540h250q116 0 116 -98l1 -1080q0 -65 65 -65h270q65 0 65 65v1080q0 98 117 98h250q-76 0 -76 -70v-1224q0 -246 -246 -246h-492q-246 0 -246 246v1224q0 70 -74 70zM219 1276l172 270h168l172 -270h-98l-158 166l-158 -166h-98z" />
<glyph unicode="&#xfc;" horiz-adv-x="963" d="M62 1540h250q116 0 116 -98l1 -1080q0 -65 65 -65h270q65 0 65 65v1080q0 98 117 98h250q-76 0 -76 -70v-1224q0 -246 -246 -246h-492q-246 0 -246 246v1224q0 70 -74 70zM233 1311v170h156v-170h-156zM561 1311v170h156v-170h-156z" />
<glyph unicode="&#xfd;" horiz-adv-x="909" d="M62 1538h264q102 0 102 -102v-482q0 -61 62 -61q14 0 28 6l143 60q70 26 122 75q61 59 61 120v282q0 102 102 102h264q-74 0 -74 -74v-416q0 -166 -106 -225l-249 -145v-604q0 -74 74 -74h-264q-102 0 -102 102v438q-36 -16 -74 -16q-104 0 -195 104q-84 96 -84 182v654 q0 74 -74 74zM333 1276q14 0 34 32l115 195q28 43 58 43h108q-15 0 -34 -32l-116 -195q-27 -43 -58 -43h-107z" />
<glyph unicode="&#xfe;" horiz-adv-x="975" d="M123 -389v1929h166v-506q55 144 233 144q365 0 365 -600q0 -254 -54 -393q-83 -210 -296 -210q-172 0 -248 148v-512h-166zM279 580q0 -463 229 -463q134 0 180 180q25 97 25 285q0 186 -26 280q-48 172 -185 172q-145 0 -195 -168q-28 -93 -28 -286z" />
<glyph unicode="&#xff;" horiz-adv-x="909" d="M62 1538h264q102 0 102 -102v-482q0 -61 62 -61q14 0 28 6l143 60q70 26 122 75q61 59 61 120v282q0 102 102 102h264q-74 0 -74 -74v-416q0 -166 -106 -225l-249 -145v-604q0 -74 74 -74h-264q-102 0 -102 102v438q-36 -16 -74 -16q-104 0 -195 104q-84 96 -84 182v654 q0 74 -74 74zM213 1311v170h156v-170h-156zM541 1311v170h156v-170h-156z" />
<glyph unicode="&#x152;" horiz-adv-x="1747" d="M104 770q0 342 72 526q110 281 395 281q229 0 310 -170v133h764v-160h-596v-495h555v-156h-555v-567h602v-162h-770v133q-81 -170 -310 -170q-285 0 -395 281q-72 184 -72 526zM285 801q0 -314 30 -431q64 -255 283 -255q167 0 233 113q50 87 50 270v567q0 170 -56 255 q-67 103 -227 103q-207 0 -276 -226q-37 -123 -37 -396z" />
<glyph unicode="&#x153;" horiz-adv-x="1485" d="M90 563q0 273 62 414q91 205 327 205q201 0 295 -160q90 160 270 160q345 0 345 -518q0 -62 -2 -96l-531 -1v-71q0 -169 23 -247q41 -145 168 -145q182 0 186 279h149q-5 -178 -76 -284q-84 -128 -251 -128q-210 0 -285 166q-79 -166 -289 -166q-231 0 -324 192 q-67 139 -67 400zM260 565q0 -196 27 -290q50 -171 196 -171t191 175q22 85 22 290q0 219 -20 300q-44 180 -195 180q-152 0 -199 -181q-22 -88 -22 -303zM854 698h373q0 9 1 28t1 28q0 295 -185 295q-190 0 -190 -351z" />
<glyph unicode="&#x178;" horiz-adv-x="1028" d="M62 1538h264q102 0 102 -102v-482q0 -61 62 -61q14 0 28 6l143 60q70 26 122 75q61 59 61 120v282q0 102 102 102h264q-74 0 -74 -74v-416q0 -166 -106 -225l-249 -145v-604q0 -74 74 -74h-264q-102 0 -102 102v438q-36 -16 -74 -16q-104 0 -195 104q-84 96 -84 182v654 q0 74 -74 74zM272 1723v170h156v-170h-156zM600 1723v170h156v-170h-156z" />
<glyph unicode="&#x2c6;" d="M256 1276l172 270h168l172 -270h-98l-158 166l-158 -166h-98z" />
<glyph unicode="&#x2dc;" d="M264 1296q44 195 176 195q22 0 41 -6l107 -33q1 0 4 -1q16 -3 24 -3q56 0 68 70h74q-28 -201 -166 -201q-31 0 -59 10l-87 31q-11 4 -34 4q-51 0 -72 -66h-76z" />
<glyph unicode="&#x2000;" horiz-adv-x="986" />
<glyph unicode="&#x2001;" horiz-adv-x="1972" />
<glyph unicode="&#x2002;" horiz-adv-x="986" />
<glyph unicode="&#x2003;" horiz-adv-x="1972" />
<glyph unicode="&#x2004;" horiz-adv-x="657" />
<glyph unicode="&#x2005;" horiz-adv-x="493" />
<glyph unicode="&#x2006;" horiz-adv-x="328" />
<glyph unicode="&#x2007;" horiz-adv-x="328" />
<glyph unicode="&#x2008;" horiz-adv-x="246" />
<glyph unicode="&#x2009;" horiz-adv-x="394" />
<glyph unicode="&#x200a;" horiz-adv-x="109" />
<glyph unicode="&#x2010;" horiz-adv-x="676" d="M90 437v276q0 -46 44 -46h406q44 0 44 46v-276q0 47 -44 47h-24h-382q-44 0 -44 -47z" />
<glyph unicode="&#x2011;" horiz-adv-x="676" d="M90 437v276q0 -46 44 -46h406q44 0 44 46v-276q0 47 -44 47h-24h-382q-44 0 -44 -47z" />
<glyph unicode="&#x2012;" horiz-adv-x="676" d="M90 437v276q0 -46 44 -46h406q44 0 44 46v-276q0 47 -44 47h-24h-382q-44 0 -44 -47z" />
<glyph unicode="&#x2013;" d="M0 502v147h1024v-147h-1024z" />
<glyph unicode="&#x2014;" horiz-adv-x="2048" d="M0 502v147h2048v-147h-2048z" />
<glyph unicode="&#x2018;" horiz-adv-x="502" d="M160 1071v211q0 104 41 181q48 91 141 114v-98q-88 -17 -88 -187v-10h88v-211h-182z" />
<glyph unicode="&#x2019;" horiz-adv-x="502" d="M160 1036v97q88 17 88 188v10h-88v209h182v-211q0 -104 -41 -181q-48 -89 -141 -112z" />
<glyph unicode="&#x201a;" horiz-adv-x="502" d="M160 0v211h182v-211q0 -104 -41 -181q-48 -91 -141 -114v96q88 17 88 189v10h-88z" />
<glyph unicode="&#x201c;" horiz-adv-x="795" d="M160 1071v211q0 104 41 181q48 89 141 112v-96q-88 -17 -88 -189v-10h88v-209h-182zM451 1071v211q0 105 41 181q48 89 141 112v-96q-88 -17 -88 -189v-10h88v-209h-182z" />
<glyph unicode="&#x201d;" horiz-adv-x="795" d="M160 1036v97q88 17 88 188v10h-88v209h182v-211q0 -104 -41 -181q-48 -89 -141 -112zM451 1036v97q88 17 88 188v10h-88v209h182v-211q0 -104 -41 -181q-48 -89 -141 -112z" />
<glyph unicode="&#x201e;" horiz-adv-x="795" d="M160 0v211h182v-211q0 -104 -41 -181q-48 -91 -141 -114v96q88 17 88 189v10h-88zM451 0v211h182v-211q0 -104 -41 -181q-48 -91 -141 -114v96q88 17 88 189v10h-88z" />
<glyph unicode="&#x2022;" horiz-adv-x="1208" d="M307 762q0 124 86.5 209.5t210.5 85.5q123 0 209 -86t86 -209t-87 -210t-210 -87q-124 0 -209.5 86.5t-85.5 210.5z" />
<glyph unicode="&#x2026;" horiz-adv-x="2048" d="M195 262h184q63 0 63 -63v-153q0 -46 46 -46h-185q-63 0 -63 63v153q0 46 -45 46zM877 262h184q63 0 63 -63v-153q0 -46 46 -46h-185q-63 0 -63 63v153q0 46 -45 46zM1561 262h184q63 0 63 -63v-153q0 -46 46 -46h-185q-63 0 -63 63v153q0 46 -45 46z" />
<glyph unicode="&#x202f;" horiz-adv-x="394" />
<glyph unicode="&#x2039;" horiz-adv-x="565" d="M131 506v145l303 314v-187l-196 -200l196 -205v-187z" />
<glyph unicode="&#x203a;" horiz-adv-x="565" d="M131 186v187l197 200l-197 205v187l303 -318v-147z" />
<glyph unicode="&#x205f;" horiz-adv-x="493" />
<glyph unicode="&#x2122;" horiz-adv-x="1706" d="M242 1378v80h452v-80h-172v-458h-108v458h-172zM813 920v538h150l151 -385l141 385h150v-538h-98v444l-166 -444h-56l-174 444v-444h-98z" />
<glyph unicode="&#x25fc;" horiz-adv-x="1540" d="M0 0v1540h1540v-1540h-1540z" />
</font>
</defs>
</svg>
